<svg xmlns="http://www.w3.org/2000/svg" width="1920" height="240"><path d="M-207,-288L301,-253L649,-265Z" fill="#ececec" stroke="#ececec" stroke-width="1.51"/><path d="M-207,-288L649,-265L818,-267Z" fill="#e5e5e5" stroke="#e5e5e5" stroke-width="1.51"/><path d="M542,471L-212,499L1206,516Z" fill="#6a6a6a" stroke="#6a6a6a" stroke-width="1.51"/><path d="M818,-267L1202,-229L1392,-232Z" fill="#bababa" stroke="#bababa" stroke-width="1.51"/><path d="M1392,-232L1537,-222L1732,-229Z" fill="#a0a0a0" stroke="#a0a0a0" stroke-width="1.51"/><path d="M1691,435L1534,483L1894,434Z" fill="#313131" stroke="#313131" stroke-width="1.51"/><path d="M1392,-232L1732,-229L1950,-259Z" fill="#959595" stroke="#959595" stroke-width="1.51"/><path d="M818,-267L1392,-232L1950,-259Z" fill="#ababab" stroke="#ababab" stroke-width="1.51"/><path d="M1885,84L1893,323L2050,322Z" fill="#454545" stroke="#454545" stroke-width="1.51"/><path d="M1950,-259L1928,-23L2096,-42Z" fill="#737373" stroke="#737373" stroke-width="1.51"/><path d="M818,-267L1950,-259L2099,-260Z" fill="#9c9c9c" stroke="#9c9c9c" stroke-width="1.51"/><path d="M-207,-288L818,-267L2099,-260Z" fill="#cacaca" stroke="#cacaca" stroke-width="1.51"/><path d="M1950,-259L2096,-42L2099,-260Z" fill="#777777" stroke="#777777" stroke-width="1.51"/><path d="M1894,434L1534,483L2102,447Z" fill="#262626" stroke="#262626" stroke-width="1.51"/><path d="M1534,483L1357,516L2102,447Z" fill="#2f2f2f" stroke="#2f2f2f" stroke-width="1.51"/><path d="M1885,84L2050,322L2113,153Z" fill="#494949" stroke="#494949" stroke-width="1.51"/><path d="M2096,-42L1928,-23L2113,153Z" fill="#5f5f5f" stroke="#5f5f5f" stroke-width="1.51"/><path d="M1928,-23L1885,84L2113,153Z" fill="#5d5d5d" stroke="#5d5d5d" stroke-width="1.51"/><path d="M2050,322L2102,447L2113,153Z" fill="#343434" stroke="#343434" stroke-width="1.51"/><path d="M2099,-260L2096,-42L2113,153Z" fill="#666666" stroke="#666666" stroke-width="1.51"/><path d="M2050,322L1894,434L2102,447Z" fill="#282828" stroke="#282828" stroke-width="1.51"/><path d="M1893,323L1894,434L2050,322Z" fill="#333333" stroke="#333333" stroke-width="1.51"/><path d="M1885,84L1742,133L1893,323Z" fill="#545454" stroke="#545454" stroke-width="1.51"/><path d="M1732,-229L1783,-15L1928,-23Z" fill="#7d7d7d" stroke="#7d7d7d" stroke-width="1.51"/><path d="M1732,-229L1928,-23L1950,-259Z" fill="#808080" stroke="#808080" stroke-width="1.51"/><path d="M1742,133L1688,256L1893,323Z" fill="#525252" stroke="#525252" stroke-width="1.51"/><path d="M1783,-15L1885,84L1928,-23Z" fill="#6c6c6c" stroke="#6c6c6c" stroke-width="1.51"/><path d="M1688,256L1691,435L1893,323Z" fill="#444444" stroke="#444444" stroke-width="1.51"/><path d="M1893,323L1691,435L1894,434Z" fill="#323232" stroke="#323232" stroke-width="1.51"/><path d="M1783,-15L1742,133L1885,84Z" fill="#696969" stroke="#696969" stroke-width="1.51"/><path d="M1609,-61L1742,133L1783,-15Z" fill="#797979" stroke="#797979" stroke-width="1.51"/><path d="M1732,-229L1609,-61L1783,-15Z" fill="#878787" stroke="#878787" stroke-width="1.51"/><path d="M1537,-222L1609,-61L1732,-229Z" fill="#959595" stroke="#959595" stroke-width="1.51"/><path d="M1566,163L1688,256L1742,133Z" fill="#626262" stroke="#626262" stroke-width="1.51"/><path d="M1609,-61L1566,163L1742,133Z" fill="#757575" stroke="#757575" stroke-width="1.51"/><path d="M1688,256L1592,246L1691,435Z" fill="#4f4f4f" stroke="#4f4f4f" stroke-width="1.51"/><path d="M1566,163L1592,246L1688,256Z" fill="#606060" stroke="#606060" stroke-width="1.51"/><path d="M1592,246L1534,483L1691,435Z" fill="#454545" stroke="#454545" stroke-width="1.51"/><path d="M911,430L542,471L1206,516Z" fill="#5a5a5a" stroke="#5a5a5a" stroke-width="1.51"/><path d="M1452,292L1534,483L1592,246Z" fill="#545454" stroke="#545454" stroke-width="1.51"/><path d="M1419,-58L1566,163L1609,-61Z" fill="#878787" stroke="#878787" stroke-width="1.51"/><path d="M1537,-222L1419,-58L1609,-61Z" fill="#979797" stroke="#979797" stroke-width="1.51"/><path d="M741,427L542,471L911,430Z" fill="#696969" stroke="#696969" stroke-width="1.51"/><path d="M1419,-58L1360,140L1566,163Z" fill="#808080" stroke="#808080" stroke-width="1.51"/><path d="M1566,163L1452,292L1592,246Z" fill="#646464" stroke="#646464" stroke-width="1.51"/><path d="M1360,140L1452,292L1566,163Z" fill="#6d6d6d" stroke="#6d6d6d" stroke-width="1.51"/><path d="M1452,292L1357,516L1534,483Z" fill="#454545" stroke="#454545" stroke-width="1.51"/><path d="M1392,-232L1419,-58L1537,-222Z" fill="#a1a1a1" stroke="#a1a1a1" stroke-width="1.51"/><path d="M186,427L-212,499L542,471Z" fill="#7b7b7b" stroke="#7b7b7b" stroke-width="1.51"/><path d="M1260,-6L1360,140L1419,-58Z" fill="#909090" stroke="#909090" stroke-width="1.51"/><path d="M1195,325L1357,516L1452,292Z" fill="#565656" stroke="#565656" stroke-width="1.51"/><path d="M1360,140L1235,169L1452,292Z" fill="#737373" stroke="#737373" stroke-width="1.51"/><path d="M1235,169L1195,325L1452,292Z" fill="#6c6c6c" stroke="#6c6c6c" stroke-width="1.51"/><path d="M1202,-229L1260,-6L1392,-232Z" fill="#a9a9a9" stroke="#a9a9a9" stroke-width="1.51"/><path d="M1392,-232L1260,-6L1419,-58Z" fill="#9f9f9f" stroke="#9f9f9f" stroke-width="1.51"/><path d="M1195,325L1206,516L1357,516Z" fill="#4b4b4b" stroke="#4b4b4b" stroke-width="1.51"/><path d="M818,-267L1002,-190L1202,-229Z" fill="#c0c0c0" stroke="#c0c0c0" stroke-width="1.51"/><path d="M1260,-6L1235,169L1360,140Z" fill="#878787" stroke="#878787" stroke-width="1.51"/><path d="M323,430L186,427L542,471Z" fill="#7a7a7a" stroke="#7a7a7a" stroke-width="1.51"/><path d="M1006,424L911,430L1206,516Z" fill="#555555" stroke="#555555" stroke-width="1.51"/><path d="M1099,257L1195,325L1235,169Z" fill="#757575" stroke="#757575" stroke-width="1.51"/><path d="M1080,114L1235,169L1260,-6Z" fill="#8d8d8d" stroke="#8d8d8d" stroke-width="1.51"/><path d="M1104,-49L1080,114L1260,-6Z" fill="#9d9d9d" stroke="#9d9d9d" stroke-width="1.51"/><path d="M1202,-229L1104,-49L1260,-6Z" fill="#a9a9a9" stroke="#a9a9a9" stroke-width="1.51"/><path d="M1195,325L1006,424L1206,516Z" fill="#575757" stroke="#575757" stroke-width="1.51"/><path d="M1080,114L1099,257L1235,169Z" fill="#828282" stroke="#828282" stroke-width="1.51"/><path d="M1002,-190L1104,-49L1202,-229Z" fill="#b4b4b4" stroke="#b4b4b4" stroke-width="1.51"/><path d="M1099,257L1006,424L1195,325Z" fill="#6c6c6c" stroke="#6c6c6c" stroke-width="1.51"/><path d="M844,241L1006,424L1099,257Z" fill="#767676" stroke="#767676" stroke-width="1.51"/><path d="M1080,114L885,149L1099,257Z" fill="#8a8a8a" stroke="#8a8a8a" stroke-width="1.51"/><path d="M890,-29L1080,114L1104,-49Z" fill="#a5a5a5" stroke="#a5a5a5" stroke-width="1.51"/><path d="M1002,-190L890,-29L1104,-49Z" fill="#b3b3b3" stroke="#b3b3b3" stroke-width="1.51"/><path d="M885,149L844,241L1099,257Z" fill="#878787" stroke="#878787" stroke-width="1.51"/><path d="M890,-29L885,149L1080,114Z" fill="#9e9e9e" stroke="#9e9e9e" stroke-width="1.51"/><path d="M818,-267L890,-29L1002,-190Z" fill="#c1c1c1" stroke="#c1c1c1" stroke-width="1.51"/><path d="M844,241L911,430L1006,424Z" fill="#707070" stroke="#707070" stroke-width="1.51"/><path d="M699,326L741,427L844,241Z" fill="#808080" stroke="#808080" stroke-width="1.51"/><path d="M818,-267L652,-51L890,-29Z" fill="#c4c4c4" stroke="#c4c4c4" stroke-width="1.51"/><path d="M729,62L885,149L890,-29Z" fill="#a8a8a8" stroke="#a8a8a8" stroke-width="1.51"/><path d="M844,241L741,427L911,430Z" fill="#747474" stroke="#747474" stroke-width="1.51"/><path d="M301,-253L547,-232L649,-265Z" fill="#e0e0e0" stroke="#e0e0e0" stroke-width="1.51"/><path d="M652,-51L729,62L890,-29Z" fill="#b8b8b8" stroke="#b8b8b8" stroke-width="1.51"/><path d="M729,62L844,241L885,149Z" fill="#9a9a9a" stroke="#9a9a9a" stroke-width="1.51"/><path d="M649,-265L652,-51L818,-267Z" fill="#d1d1d1" stroke="#d1d1d1" stroke-width="1.51"/><path d="M729,62L699,326L844,241Z" fill="#949494" stroke="#949494" stroke-width="1.51"/><path d="M544,107L699,326L729,62Z" fill="#a2a2a2" stroke="#a2a2a2" stroke-width="1.51"/><path d="M699,326L542,471L741,427Z" fill="#757575" stroke="#757575" stroke-width="1.51"/><path d="M649,-265L547,-232L652,-51Z" fill="#d5d5d5" stroke="#d5d5d5" stroke-width="1.51"/><path d="M544,107L509,353L699,326Z" fill="#959595" stroke="#959595" stroke-width="1.51"/><path d="M652,-51L544,107L729,62Z" fill="#b8b8b8" stroke="#b8b8b8" stroke-width="1.51"/><path d="M-207,-288L17,-219L301,-253Z" fill="#f3f3f3" stroke="#f3f3f3" stroke-width="1.51"/><path d="M509,353L542,471L699,326Z" fill="#7e7e7e" stroke="#7e7e7e" stroke-width="1.51"/><path d="M547,-232L509,-64L652,-51Z" fill="#d1d1d1" stroke="#d1d1d1" stroke-width="1.51"/><path d="M509,-64L544,107L652,-51Z" fill="#c2c2c2" stroke="#c2c2c2" stroke-width="1.51"/><path d="M-16,422L-212,499L186,427Z" fill="#848484" stroke="#848484" stroke-width="1.51"/><path d="M509,353L323,430L542,471Z" fill="#7b7b7b" stroke="#7b7b7b" stroke-width="1.51"/><path d="M299,261L509,353L544,107Z" fill="#9e9e9e" stroke="#9e9e9e" stroke-width="1.51"/><path d="M324,69L299,261L544,107Z" fill="#b1b1b1" stroke="#b1b1b1" stroke-width="1.51"/><path d="M509,-64L324,69L544,107Z" fill="#c1c1c1" stroke="#c1c1c1" stroke-width="1.51"/><path d="M327,-71L509,-64L547,-232Z" fill="#d6d6d6" stroke="#d6d6d6" stroke-width="1.51"/><path d="M301,-253L327,-71L547,-232Z" fill="#e0e0e0" stroke="#e0e0e0" stroke-width="1.51"/><path d="M299,261L323,430L509,353Z" fill="#8f8f8f" stroke="#8f8f8f" stroke-width="1.51"/><path d="M327,-71L324,69L509,-64Z" fill="#cdcdcd" stroke="#cdcdcd" stroke-width="1.51"/><path d="M152,109L155,247L299,261Z" fill="#adadad" stroke="#adadad" stroke-width="1.51"/><path d="M17,-219L161,-202L301,-253Z" fill="#ececec" stroke="#ececec" stroke-width="1.51"/><path d="M299,261L186,427L323,430Z" fill="#8d8d8d" stroke="#8d8d8d" stroke-width="1.51"/><path d="M152,109L299,261L324,69Z" fill="#b6b6b6" stroke="#b6b6b6" stroke-width="1.51"/><path d="M130,-24L152,109L324,69Z" fill="#c9c9c9" stroke="#c9c9c9" stroke-width="1.51"/><path d="M301,-253L161,-202L327,-71Z" fill="#e4e4e4" stroke="#e4e4e4" stroke-width="1.51"/><path d="M130,-24L324,69L327,-71Z" fill="#d1d1d1" stroke="#d1d1d1" stroke-width="1.51"/><path d="M161,-202L130,-24L327,-71Z" fill="#dedede" stroke="#dedede" stroke-width="1.51"/><path d="M155,247L186,427L299,261Z" fill="#9c9c9c" stroke="#9c9c9c" stroke-width="1.51"/><path d="M17,-219L130,-24L161,-202Z" fill="#e7e7e7" stroke="#e7e7e7" stroke-width="1.51"/><path d="M155,247L42,299L186,427Z" fill="#9c9c9c" stroke="#9c9c9c" stroke-width="1.51"/><path d="M42,299L-16,422L186,427Z" fill="#929292" stroke="#929292" stroke-width="1.51"/><path d="M17,-219L-3,-29L130,-24Z" fill="#e3e3e3" stroke="#e3e3e3" stroke-width="1.51"/><path d="M130,-24L-3,-29L152,109Z" fill="#d3d3d3" stroke="#d3d3d3" stroke-width="1.51"/><path d="M-3,-29L3,147L152,109Z" fill="#cacaca" stroke="#cacaca" stroke-width="1.51"/><path d="M152,109L3,147L155,247Z" fill="#b8b8b8" stroke="#b8b8b8" stroke-width="1.51"/><path d="M3,147L42,299L155,247Z" fill="#aeaeae" stroke="#aeaeae" stroke-width="1.51"/><path d="M-3,-29L-153,2L3,147Z" fill="#d3d3d3" stroke="#d3d3d3" stroke-width="1.51"/><path d="M-153,2L-3,-29L17,-219Z" fill="#e4e4e4" stroke="#e4e4e4" stroke-width="1.51"/><path d="M3,147L-202,257L42,299Z" fill="#b1b1b1" stroke="#b1b1b1" stroke-width="1.51"/><path d="M-202,257L-16,422L42,299Z" fill="#a2a2a2" stroke="#a2a2a2" stroke-width="1.51"/><path d="M-207,-288L-153,2L17,-219Z" fill="#f0f0f0" stroke="#f0f0f0" stroke-width="1.51"/><path d="M-153,2L-234,119L3,147Z" fill="#cccccc" stroke="#cccccc" stroke-width="1.51"/><path d="M-234,119L-202,257L3,147Z" fill="#bdbdbd" stroke="#bdbdbd" stroke-width="1.51"/><path d="M-202,257L-212,499L-16,422Z" fill="#949494" stroke="#949494" stroke-width="1.51"/><path d="M-207,-288L-234,119L-153,2Z" fill="#e5e5e5" stroke="#e5e5e5" stroke-width="1.51"/><path d="M-234,119L-212,499L-202,257Z" fill="#ababab" stroke="#ababab" stroke-width="1.51"/></svg>