<svg xmlns="http://www.w3.org/2000/svg" width="1920" height="240"><path d="M-207,-288L301,-253L649,-265Z" fill="#e8e2ef" stroke="#e8e2ef" stroke-width="1.51"/><path d="M-207,-288L649,-265L818,-267Z" fill="#dfdded" stroke="#dfdded" stroke-width="1.51"/><path d="M542,471L-212,499L1206,516Z" fill="#679092" stroke="#679092" stroke-width="1.51"/><path d="M818,-267L1202,-229L1392,-232Z" fill="#a6c1dd" stroke="#a6c1dd" stroke-width="1.51"/><path d="M1392,-232L1537,-222L1732,-229Z" fill="#8fb4be" stroke="#8fb4be" stroke-width="1.51"/><path d="M1691,435L1534,483L1894,434Z" fill="#047166" stroke="#047166" stroke-width="1.51"/><path d="M1392,-232L1732,-229L1950,-259Z" fill="#8cb0b3" stroke="#8cb0b3" stroke-width="1.51"/><path d="M818,-267L1392,-232L1950,-259Z" fill="#9abacf" stroke="#9abacf" stroke-width="1.51"/><path d="M1885,84L1893,323L2050,322Z" fill="#217984" stroke="#217984" stroke-width="1.51"/><path d="M1950,-259L1928,-23L2096,-42Z" fill="#749796" stroke="#749796" stroke-width="1.51"/><path d="M818,-267L1950,-259L2099,-260Z" fill="#8fb4ba" stroke="#8fb4ba" stroke-width="1.51"/><path d="M-207,-288L818,-267L2099,-260Z" fill="#b8cde4" stroke="#b8cde4" stroke-width="1.51"/><path d="M1950,-259L2096,-42L2099,-260Z" fill="#7c9995" stroke="#7c9995" stroke-width="1.51"/><path d="M1894,434L1534,483L2102,447Z" fill="#026c5b" stroke="#026c5b" stroke-width="1.51"/><path d="M1534,483L1357,516L2102,447Z" fill="#046d64" stroke="#046d64" stroke-width="1.51"/><path d="M1885,84L2050,322L2113,153Z" fill="#2d7a85" stroke="#2d7a85" stroke-width="1.51"/><path d="M2096,-42L1928,-23L2113,153Z" fill="#56888c" stroke="#56888c" stroke-width="1.51"/><path d="M1928,-23L1885,84L2113,153Z" fill="#4c888e" stroke="#4c888e" stroke-width="1.51"/><path d="M2050,322L2102,447L2113,153Z" fill="#106b6c" stroke="#106b6c" stroke-width="1.51"/><path d="M2099,-260L2096,-42L2113,153Z" fill="#668b8c" stroke="#668b8c" stroke-width="1.51"/><path d="M2050,322L1894,434L2102,447Z" fill="#03685b" stroke="#03685b" stroke-width="1.51"/><path d="M1893,323L1894,434L2050,322Z" fill="#047068" stroke="#047068" stroke-width="1.51"/><path d="M1885,84L1742,133L1893,323Z" fill="#328592" stroke="#328592" stroke-width="1.51"/><path d="M1732,-229L1783,-15L1928,-23Z" fill="#769fa2" stroke="#769fa2" stroke-width="1.51"/><path d="M1732,-229L1928,-23L1950,-259Z" fill="#7fa4a0" stroke="#7fa4a0" stroke-width="1.51"/><path d="M1742,133L1688,256L1893,323Z" fill="#238192" stroke="#238192" stroke-width="1.51"/><path d="M1783,-15L1885,84L1928,-23Z" fill="#609498" stroke="#609498" stroke-width="1.51"/><path d="M1688,256L1691,435L1893,323Z" fill="#057a7b" stroke="#057a7b" stroke-width="1.51"/><path d="M1893,323L1691,435L1894,434Z" fill="#047368" stroke="#047368" stroke-width="1.51"/><path d="M1783,-15L1742,133L1885,84Z" fill="#51929b" stroke="#51929b" stroke-width="1.51"/><path d="M1609,-61L1742,133L1783,-15Z" fill="#6299a5" stroke="#6299a5" stroke-width="1.51"/><path d="M1732,-229L1609,-61L1783,-15Z" fill="#7ba4ab" stroke="#7ba4ab" stroke-width="1.51"/><path d="M1537,-222L1609,-61L1732,-229Z" fill="#86acb5" stroke="#86acb5" stroke-width="1.51"/><path d="M1566,163L1688,256L1742,133Z" fill="#328ba0" stroke="#328ba0" stroke-width="1.51"/><path d="M1609,-61L1566,163L1742,133Z" fill="#5096a9" stroke="#5096a9" stroke-width="1.51"/><path d="M1688,256L1592,246L1691,435Z" fill="#0f8089" stroke="#0f8089" stroke-width="1.51"/><path d="M1566,163L1592,246L1688,256Z" fill="#2688a2" stroke="#2688a2" stroke-width="1.51"/><path d="M1592,246L1534,483L1691,435Z" fill="#047b7c" stroke="#047b7c" stroke-width="1.51"/><path d="M911,430L542,471L1206,516Z" fill="#46888f" stroke="#46888f" stroke-width="1.51"/><path d="M1452,292L1534,483L1592,246Z" fill="#0a828d" stroke="#0a828d" stroke-width="1.51"/><path d="M1419,-58L1566,163L1609,-61Z" fill="#67a0b5" stroke="#67a0b5" stroke-width="1.51"/><path d="M1537,-222L1419,-58L1609,-61Z" fill="#82abbc" stroke="#82abbc" stroke-width="1.51"/><path d="M741,427L542,471L911,430Z" fill="#599297" stroke="#599297" stroke-width="1.51"/><path d="M1419,-58L1360,140L1566,163Z" fill="#569bb9" stroke="#569bb9" stroke-width="1.51"/><path d="M1566,163L1452,292L1592,246Z" fill="#2689a7" stroke="#2689a7" stroke-width="1.51"/><path d="M1360,140L1452,292L1566,163Z" fill="#348fb1" stroke="#348fb1" stroke-width="1.51"/><path d="M1452,292L1357,516L1534,483Z" fill="#167b80" stroke="#167b80" stroke-width="1.51"/><path d="M1392,-232L1419,-58L1537,-222Z" fill="#8db1c5" stroke="#8db1c5" stroke-width="1.51"/><path d="M186,427L-212,499L542,471Z" fill="#7da09c" stroke="#7da09c" stroke-width="1.51"/><path d="M1260,-6L1360,140L1419,-58Z" fill="#6da3c5" stroke="#6da3c5" stroke-width="1.51"/><path d="M1195,325L1357,516L1452,292Z" fill="#1f8396" stroke="#1f8396" stroke-width="1.51"/><path d="M1360,140L1235,169L1452,292Z" fill="#3a91ba" stroke="#3a91ba" stroke-width="1.51"/><path d="M1235,169L1195,325L1452,292Z" fill="#308eb5" stroke="#308eb5" stroke-width="1.51"/><path d="M1202,-229L1260,-6L1392,-232Z" fill="#94b4d4" stroke="#94b4d4" stroke-width="1.51"/><path d="M1392,-232L1260,-6L1419,-58Z" fill="#89aecb" stroke="#89aecb" stroke-width="1.51"/><path d="M1195,325L1206,516L1357,516Z" fill="#267d8b" stroke="#267d8b" stroke-width="1.51"/><path d="M818,-267L1002,-190L1202,-229Z" fill="#adc5e0" stroke="#adc5e0" stroke-width="1.51"/><path d="M1260,-6L1235,169L1360,140Z" fill="#579dc7" stroke="#579dc7" stroke-width="1.51"/><path d="M323,430L186,427L542,471Z" fill="#779f9e" stroke="#779f9e" stroke-width="1.51"/><path d="M1006,424L911,430L1206,516Z" fill="#38858f" stroke="#38858f" stroke-width="1.51"/><path d="M1099,257L1195,325L1235,169Z" fill="#3c92bc" stroke="#3c92bc" stroke-width="1.51"/><path d="M1080,114L1235,169L1260,-6Z" fill="#61a2cb" stroke="#61a2cb" stroke-width="1.51"/><path d="M1104,-49L1080,114L1260,-6Z" fill="#7aaad0" stroke="#7aaad0" stroke-width="1.51"/><path d="M1202,-229L1104,-49L1260,-6Z" fill="#91b3d5" stroke="#91b3d5" stroke-width="1.51"/><path d="M1195,325L1006,424L1206,516Z" fill="#318694" stroke="#318694" stroke-width="1.51"/><path d="M1080,114L1099,257L1235,169Z" fill="#4e9ac6" stroke="#4e9ac6" stroke-width="1.51"/><path d="M1002,-190L1104,-49L1202,-229Z" fill="#9ebbda" stroke="#9ebbda" stroke-width="1.51"/><path d="M1099,257L1006,424L1195,325Z" fill="#368faa" stroke="#368faa" stroke-width="1.51"/><path d="M844,241L1006,424L1099,257Z" fill="#4496b3" stroke="#4496b3" stroke-width="1.51"/><path d="M1080,114L885,149L1099,257Z" fill="#58a0ca" stroke="#58a0ca" stroke-width="1.51"/><path d="M890,-29L1080,114L1104,-49Z" fill="#84b0d4" stroke="#84b0d4" stroke-width="1.51"/><path d="M1002,-190L890,-29L1104,-49Z" fill="#9bbad9" stroke="#9bbad9" stroke-width="1.51"/><path d="M885,149L844,241L1099,257Z" fill="#569ec9" stroke="#569ec9" stroke-width="1.51"/><path d="M890,-29L885,149L1080,114Z" fill="#75aed1" stroke="#75aed1" stroke-width="1.51"/><path d="M818,-267L890,-29L1002,-190Z" fill="#adc4df" stroke="#adc4df" stroke-width="1.51"/><path d="M844,241L911,430L1006,424Z" fill="#4694a7" stroke="#4694a7" stroke-width="1.51"/><path d="M699,326L741,427L844,241Z" fill="#5b9cb2" stroke="#5b9cb2" stroke-width="1.51"/><path d="M818,-267L652,-51L890,-29Z" fill="#b1c4df" stroke="#b1c4df" stroke-width="1.51"/><path d="M729,62L885,149L890,-29Z" fill="#87b2d5" stroke="#87b2d5" stroke-width="1.51"/><path d="M844,241L741,427L911,430Z" fill="#5196a8" stroke="#5196a8" stroke-width="1.51"/><path d="M301,-253L547,-232L649,-265Z" fill="#d7d8eb" stroke="#d7d8eb" stroke-width="1.51"/><path d="M652,-51L729,62L890,-29Z" fill="#a0bbda" stroke="#a0bbda" stroke-width="1.51"/><path d="M729,62L844,241L885,149Z" fill="#72aad0" stroke="#72aad0" stroke-width="1.51"/><path d="M649,-265L652,-51L818,-267Z" fill="#c3cde4" stroke="#c3cde4" stroke-width="1.51"/><path d="M729,62L699,326L844,241Z" fill="#6ea5cd" stroke="#6ea5cd" stroke-width="1.51"/><path d="M544,107L699,326L729,62Z" fill="#80aed2" stroke="#80aed2" stroke-width="1.51"/><path d="M699,326L542,471L741,427Z" fill="#6298a1" stroke="#6298a1" stroke-width="1.51"/><path d="M649,-265L547,-232L652,-51Z" fill="#c8cee5" stroke="#c8cee5" stroke-width="1.51"/><path d="M544,107L509,353L699,326Z" fill="#77a7c7" stroke="#77a7c7" stroke-width="1.51"/><path d="M652,-51L544,107L729,62Z" fill="#a0bbda" stroke="#a0bbda" stroke-width="1.51"/><path d="M-207,-288L17,-219L301,-253Z" fill="#f0e6f2" stroke="#f0e6f2" stroke-width="1.51"/><path d="M509,353L542,471L699,326Z" fill="#699da9" stroke="#699da9" stroke-width="1.51"/><path d="M547,-232L509,-64L652,-51Z" fill="#c3cbe3" stroke="#c3cbe3" stroke-width="1.51"/><path d="M509,-64L544,107L652,-51Z" fill="#afc1dd" stroke="#afc1dd" stroke-width="1.51"/><path d="M-16,422L-212,499L186,427Z" fill="#85a8a2" stroke="#85a8a2" stroke-width="1.51"/><path d="M509,353L323,430L542,471Z" fill="#719ea2" stroke="#719ea2" stroke-width="1.51"/><path d="M299,261L509,353L544,107Z" fill="#84acce" stroke="#84acce" stroke-width="1.51"/><path d="M324,69L299,261L544,107Z" fill="#97b8d8" stroke="#97b8d8" stroke-width="1.51"/><path d="M509,-64L324,69L544,107Z" fill="#adc1dd" stroke="#adc1dd" stroke-width="1.51"/><path d="M327,-71L509,-64L547,-232Z" fill="#cccfe5" stroke="#cccfe5" stroke-width="1.51"/><path d="M301,-253L327,-71L547,-232Z" fill="#d8d6e9" stroke="#d8d6e9" stroke-width="1.51"/><path d="M299,261L323,430L509,353Z" fill="#7ba7b4" stroke="#7ba7b4" stroke-width="1.51"/><path d="M327,-71L324,69L509,-64Z" fill="#bfc8e1" stroke="#bfc8e1" stroke-width="1.51"/><path d="M152,109L155,247L299,261Z" fill="#98b7d7" stroke="#98b7d7" stroke-width="1.51"/><path d="M17,-219L161,-202L301,-253Z" fill="#e8e0ef" stroke="#e8e0ef" stroke-width="1.51"/><path d="M299,261L186,427L323,430Z" fill="#7fa7b0" stroke="#7fa7b0" stroke-width="1.51"/><path d="M152,109L299,261L324,69Z" fill="#9fbcda" stroke="#9fbcda" stroke-width="1.51"/><path d="M130,-24L152,109L324,69Z" fill="#b7c7e1" stroke="#b7c7e1" stroke-width="1.51"/><path d="M301,-253L161,-202L327,-71Z" fill="#ded9eb" stroke="#ded9eb" stroke-width="1.51"/><path d="M130,-24L324,69L327,-71Z" fill="#c3cbe3" stroke="#c3cbe3" stroke-width="1.51"/><path d="M161,-202L130,-24L327,-71Z" fill="#d7d5e8" stroke="#d7d5e8" stroke-width="1.51"/><path d="M155,247L186,427L299,261Z" fill="#88aec0" stroke="#88aec0" stroke-width="1.51"/><path d="M17,-219L130,-24L161,-202Z" fill="#e2dced" stroke="#e2dced" stroke-width="1.51"/><path d="M155,247L42,299L186,427Z" fill="#8ab0be" stroke="#8ab0be" stroke-width="1.51"/><path d="M42,299L-16,422L186,427Z" fill="#87acb1" stroke="#87acb1" stroke-width="1.51"/><path d="M17,-219L-3,-29L130,-24Z" fill="#dcd9ea" stroke="#dcd9ea" stroke-width="1.51"/><path d="M130,-24L-3,-29L152,109Z" fill="#c5cde4" stroke="#c5cde4" stroke-width="1.51"/><path d="M-3,-29L3,147L152,109Z" fill="#b8c9e2" stroke="#b8c9e2" stroke-width="1.51"/><path d="M152,109L3,147L155,247Z" fill="#a3bedb" stroke="#a3bedb" stroke-width="1.51"/><path d="M3,147L42,299L155,247Z" fill="#9bb8d7" stroke="#9bb8d7" stroke-width="1.51"/><path d="M-3,-29L-153,2L3,147Z" fill="#c5d0e6" stroke="#c5d0e6" stroke-width="1.51"/><path d="M-153,2L-3,-29L17,-219Z" fill="#dedbeb" stroke="#dedbeb" stroke-width="1.51"/><path d="M3,147L-202,257L42,299Z" fill="#9ebbd8" stroke="#9ebbd8" stroke-width="1.51"/><path d="M-202,257L-16,422L42,299Z" fill="#91b5c1" stroke="#91b5c1" stroke-width="1.51"/><path d="M-207,-288L-153,2L17,-219Z" fill="#ece4f1" stroke="#ece4f1" stroke-width="1.51"/><path d="M-153,2L-234,119L3,147Z" fill="#bacee4" stroke="#bacee4" stroke-width="1.51"/><path d="M-234,119L-202,257L3,147Z" fill="#aac5e0" stroke="#aac5e0" stroke-width="1.51"/><path d="M-202,257L-212,499L-16,422Z" fill="#8eb2b2" stroke="#8eb2b2" stroke-width="1.51"/><path d="M-207,-288L-234,119L-153,2Z" fill="#dedded" stroke="#dedded" stroke-width="1.51"/><path d="M-234,119L-212,499L-202,257Z" fill="#9bbdcc" stroke="#9bbdcc" stroke-width="1.51"/></svg>