<svg xmlns="http://www.w3.org/2000/svg" width="1920" height="240"><path d="M387,450L-215,465L723,478Z" fill="#7489b7" stroke="#7489b7" stroke-width="1.51"/><path d="M1239,430L723,478L1356,433Z" fill="#3871ab" stroke="#3871ab" stroke-width="1.51"/><path d="M1845,400L1650,403L1974,428Z" fill="#0c549e" stroke="#0c549e" stroke-width="1.51"/><path d="M1650,403L1356,433L1974,428Z" fill="#145ba2" stroke="#145ba2" stroke-width="1.51"/><path d="M365,-246L748,-242L2008,-242Z" fill="#adcee8" stroke="#adcee8" stroke-width="1.51"/><path d="M1062,-238L1382,-236L2008,-242Z" fill="#99b6dc" stroke="#99b6dc" stroke-width="1.51"/><path d="M748,-242L1062,-238L2008,-242Z" fill="#a1c3e2" stroke="#a1c3e2" stroke-width="1.51"/><path d="M1382,-236L1701,-182L2008,-242Z" fill="#90a9d4" stroke="#90a9d4" stroke-width="1.51"/><path d="M1999,10L2123,14L2143,-223Z" fill="#7086b4" stroke="#7086b4" stroke-width="1.51"/><path d="M2008,-242L1999,10L2143,-223Z" fill="#7d8fbb" stroke="#7d8fbb" stroke-width="1.51"/><path d="M2082,110L1989,125L2151,284Z" fill="#366ca5" stroke="#366ca5" stroke-width="1.51"/><path d="M1989,125L1945,270L2151,284Z" fill="#2967a5" stroke="#2967a5" stroke-width="1.51"/><path d="M1945,270L1974,428L2151,284Z" fill="#15579c" stroke="#15579c" stroke-width="1.51"/><path d="M2123,14L2082,110L2151,284Z" fill="#3d6ea5" stroke="#3d6ea5" stroke-width="1.51"/><path d="M2143,-223L2123,14L2151,284Z" fill="#5b7ba9" stroke="#5b7ba9" stroke-width="1.51"/><path d="M1974,428L1356,433L2161,435Z" fill="#0c5099" stroke="#0c5099" stroke-width="1.51"/><path d="M1356,433L723,478L2161,435Z" fill="#2363a3" stroke="#2363a3" stroke-width="1.51"/><path d="M2151,284L1974,428L2161,435Z" fill="#0e4a8f" stroke="#0e4a8f" stroke-width="1.51"/><path d="M2143,-223L2151,284L2161,435Z" fill="#36699f" stroke="#36699f" stroke-width="1.51"/><path d="M1999,10L2082,110L2123,14Z" fill="#587eae" stroke="#587eae" stroke-width="1.51"/><path d="M1701,-182L1809,-161L2008,-242Z" fill="#899fcc" stroke="#899fcc" stroke-width="1.51"/><path d="M1862,-63L1999,10L2008,-242Z" fill="#7990c1" stroke="#7990c1" stroke-width="1.51"/><path d="M1999,10L1989,125L2082,110Z" fill="#4e7bb0" stroke="#4e7bb0" stroke-width="1.51"/><path d="M128,433L-215,465L387,450Z" fill="#7e91be" stroke="#7e91be" stroke-width="1.51"/><path d="M1945,270L1845,400L1974,428Z" fill="#10579f" stroke="#10579f" stroke-width="1.51"/><path d="M1851,167L1945,270L1989,125Z" fill="#3472b0" stroke="#3472b0" stroke-width="1.51"/><path d="M1851,167L1989,125L1999,10Z" fill="#4a7db5" stroke="#4a7db5" stroke-width="1.51"/><path d="M1809,-161L1862,-63L2008,-242Z" fill="#8299c9" stroke="#8299c9" stroke-width="1.51"/><path d="M1862,-63L1851,167L1999,10Z" fill="#5e88bc" stroke="#5e88bc" stroke-width="1.51"/><path d="M1851,167L1758,287L1945,270Z" fill="#296fb0" stroke="#296fb0" stroke-width="1.51"/><path d="M1758,287L1845,400L1945,270Z" fill="#1862a9" stroke="#1862a9" stroke-width="1.51"/><path d="M1012,412L723,478L1239,430Z" fill="#4177b0" stroke="#4177b0" stroke-width="1.51"/><path d="M1483,387L1356,433L1650,403Z" fill="#1e66ab" stroke="#1e66ab" stroke-width="1.51"/><path d="M1664,2L1624,120L1851,167Z" fill="#508bc1" stroke="#508bc1" stroke-width="1.51"/><path d="M1664,2L1851,167L1862,-63Z" fill="#618ec2" stroke="#618ec2" stroke-width="1.51"/><path d="M1809,-161L1664,2L1862,-63Z" fill="#7b99ca" stroke="#7b99ca" stroke-width="1.51"/><path d="M1704,274L1758,287L1851,167Z" fill="#2b73b3" stroke="#2b73b3" stroke-width="1.51"/><path d="M1624,120L1704,274L1851,167Z" fill="#397eba" stroke="#397eba" stroke-width="1.51"/><path d="M1701,-182L1664,2L1809,-161Z" fill="#819fcd" stroke="#819fcd" stroke-width="1.51"/><path d="M1758,287L1650,403L1845,400Z" fill="#175fa7" stroke="#175fa7" stroke-width="1.51"/><path d="M1382,-236L1459,-172L1701,-182Z" fill="#93b1d9" stroke="#93b1d9" stroke-width="1.51"/><path d="M1704,274L1650,403L1758,287Z" fill="#1d69af" stroke="#1d69af" stroke-width="1.51"/><path d="M1531,7L1664,2L1701,-182Z" fill="#7aa0cf" stroke="#7aa0cf" stroke-width="1.51"/><path d="M1459,-172L1531,7L1701,-182Z" fill="#85a9d4" stroke="#85a9d4" stroke-width="1.51"/><path d="M1542,235L1650,403L1704,274Z" fill="#2270b4" stroke="#2270b4" stroke-width="1.51"/><path d="M1624,120L1542,235L1704,274Z" fill="#3480bc" stroke="#3480bc" stroke-width="1.51"/><path d="M1542,235L1483,387L1650,403Z" fill="#206db2" stroke="#206db2" stroke-width="1.51"/><path d="M1531,7L1624,120L1664,2Z" fill="#6398c9" stroke="#6398c9" stroke-width="1.51"/><path d="M-89,-244L71,-229L365,-246Z" fill="#e4eef9" stroke="#e4eef9" stroke-width="1.51"/><path d="M1509,116L1542,235L1624,120Z" fill="#448bc3" stroke="#448bc3" stroke-width="1.51"/><path d="M1531,7L1509,116L1624,120Z" fill="#5996c8" stroke="#5996c8" stroke-width="1.51"/><path d="M1459,-172L1315,-20L1531,7Z" fill="#82abd5" stroke="#82abd5" stroke-width="1.51"/><path d="M1399,74L1509,116L1531,7Z" fill="#619ccc" stroke="#619ccc" stroke-width="1.51"/><path d="M1509,116L1394,251L1542,235Z" fill="#3d89c2" stroke="#3d89c2" stroke-width="1.51"/><path d="M1394,251L1483,387L1542,235Z" fill="#2c7aba" stroke="#2c7aba" stroke-width="1.51"/><path d="M1315,-20L1399,74L1531,7Z" fill="#70a5d0" stroke="#70a5d0" stroke-width="1.51"/><path d="M1399,74L1394,251L1509,116Z" fill="#4b93c8" stroke="#4b93c8" stroke-width="1.51"/><path d="M1394,251L1356,433L1483,387Z" fill="#2873b4" stroke="#2873b4" stroke-width="1.51"/><path d="M1382,-236L1315,-20L1459,-172Z" fill="#8fb5db" stroke="#8fb5db" stroke-width="1.51"/><path d="M1225,248L1239,430L1356,433Z" fill="#2f78b6" stroke="#2f78b6" stroke-width="1.51"/><path d="M1062,-238L1178,-151L1382,-236Z" fill="#a0c4e2" stroke="#a0c4e2" stroke-width="1.51"/><path d="M1232,-47L1315,-20L1382,-236Z" fill="#8db6db" stroke="#8db6db" stroke-width="1.51"/><path d="M1178,-151L1232,-47L1382,-236Z" fill="#94bcde" stroke="#94bcde" stroke-width="1.51"/><path d="M1225,248L1356,433L1394,251Z" fill="#317fbd" stroke="#317fbd" stroke-width="1.51"/><path d="M1315,-20L1148,138L1399,74Z" fill="#68a7d1" stroke="#68a7d1" stroke-width="1.51"/><path d="M1148,138L1225,248L1399,74Z" fill="#529bcc" stroke="#529bcc" stroke-width="1.51"/><path d="M1225,248L1394,251L1399,74Z" fill="#4591c6" stroke="#4591c6" stroke-width="1.51"/><path d="M1232,-47L1148,138L1315,-20Z" fill="#77afd5" stroke="#77afd5" stroke-width="1.51"/><path d="M995,-66L1148,138L1232,-47Z" fill="#80b6d8" stroke="#80b6d8" stroke-width="1.51"/><path d="M1225,248L1029,287L1239,430Z" fill="#3c84bf" stroke="#3c84bf" stroke-width="1.51"/><path d="M1029,287L1012,412L1239,430Z" fill="#3e7eba" stroke="#3e7eba" stroke-width="1.51"/><path d="M995,-66L1046,134L1148,138Z" fill="#73b1d7" stroke="#73b1d7" stroke-width="1.51"/><path d="M1178,-151L995,-66L1232,-47Z" fill="#94bddf" stroke="#94bddf" stroke-width="1.51"/><path d="M874,404L723,478L1012,412Z" fill="#4d7eb5" stroke="#4d7eb5" stroke-width="1.51"/><path d="M1148,138L1029,287L1225,248Z" fill="#4b96c9" stroke="#4b96c9" stroke-width="1.51"/><path d="M1046,134L1029,287L1148,138Z" fill="#579fce" stroke="#579fce" stroke-width="1.51"/><path d="M1062,-238L995,-66L1178,-151Z" fill="#9fc5e3" stroke="#9fc5e3" stroke-width="1.51"/><path d="M995,-66L850,68L1046,134Z" fill="#80b9da" stroke="#80b9da" stroke-width="1.51"/><path d="M841,293L1029,287L1046,134Z" fill="#559ccc" stroke="#559ccc" stroke-width="1.51"/><path d="M832,-149L995,-66L1062,-238Z" fill="#a5cbe6" stroke="#a5cbe6" stroke-width="1.51"/><path d="M748,-242L832,-149L1062,-238Z" fill="#b3d3ea" stroke="#b3d3ea" stroke-width="1.51"/><path d="M850,68L841,293L1046,134Z" fill="#67a9d4" stroke="#67a9d4" stroke-width="1.51"/><path d="M874,404L1012,412L1029,287Z" fill="#4785be" stroke="#4785be" stroke-width="1.51"/><path d="M841,293L874,404L1029,287Z" fill="#4f8ec5" stroke="#4f8ec5" stroke-width="1.51"/><path d="M832,-149L854,-75L995,-66Z" fill="#a3c9e4" stroke="#a3c9e4" stroke-width="1.51"/><path d="M854,-75L850,68L995,-66Z" fill="#95c2e0" stroke="#95c2e0" stroke-width="1.51"/><path d="M751,255L841,293L850,68Z" fill="#68a8d2" stroke="#68a8d2" stroke-width="1.51"/><path d="M711,86L751,255L850,68Z" fill="#79b4d8" stroke="#79b4d8" stroke-width="1.51"/><path d="M718,-50L850,68L854,-75Z" fill="#9bc6e1" stroke="#9bc6e1" stroke-width="1.51"/><path d="M841,293L723,478L874,404Z" fill="#5587be" stroke="#5587be" stroke-width="1.51"/><path d="M751,255L723,478L841,293Z" fill="#5c92c6" stroke="#5c92c6" stroke-width="1.51"/><path d="M718,-50L711,86L850,68Z" fill="#93c3df" stroke="#93c3df" stroke-width="1.51"/><path d="M832,-149L718,-50L854,-75Z" fill="#a9cde6" stroke="#a9cde6" stroke-width="1.51"/><path d="M748,-242L718,-50L832,-149Z" fill="#b3d3e9" stroke="#b3d3e9" stroke-width="1.51"/><path d="M519,382L387,450L723,478Z" fill="#6889ba" stroke="#6889ba" stroke-width="1.51"/><path d="M532,322L519,382L723,478Z" fill="#688fc2" stroke="#688fc2" stroke-width="1.51"/><path d="M365,-246L624,-163L748,-242Z" fill="#c9e0ef" stroke="#c9e0ef" stroke-width="1.51"/><path d="M624,-163L718,-50L748,-242Z" fill="#b9d7ea" stroke="#b9d7ea" stroke-width="1.51"/><path d="M711,86L572,107L751,255Z" fill="#7eb6d9" stroke="#7eb6d9" stroke-width="1.51"/><path d="M572,107L532,322L751,255Z" fill="#75acd3" stroke="#75acd3" stroke-width="1.51"/><path d="M532,322L723,478L751,255Z" fill="#6594c6" stroke="#6594c6" stroke-width="1.51"/><path d="M521,7L572,107L711,86Z" fill="#96c5e0" stroke="#96c5e0" stroke-width="1.51"/><path d="M521,7L711,86L718,-50Z" fill="#a0cbe2" stroke="#a0cbe2" stroke-width="1.51"/><path d="M624,-163L521,7L718,-50Z" fill="#b3d3e8" stroke="#b3d3e8" stroke-width="1.51"/><path d="M290,423L128,433L387,450Z" fill="#798fc0" stroke="#798fc0" stroke-width="1.51"/><path d="M411,-81L521,7L624,-163Z" fill="#bbd6eb" stroke="#bbd6eb" stroke-width="1.51"/><path d="M365,-246L411,-81L624,-163Z" fill="#c9dfef" stroke="#c9dfef" stroke-width="1.51"/><path d="M521,7L387,105L572,107Z" fill="#9cc7e2" stroke="#9cc7e2" stroke-width="1.51"/><path d="M413,301L532,322L572,107Z" fill="#7cadd5" stroke="#7cadd5" stroke-width="1.51"/><path d="M387,105L413,301L572,107Z" fill="#8abadc" stroke="#8abadc" stroke-width="1.51"/><path d="M413,301L519,382L532,322Z" fill="#739dcc" stroke="#739dcc" stroke-width="1.51"/><path d="M411,-81L387,105L521,7Z" fill="#aed1e6" stroke="#aed1e6" stroke-width="1.51"/><path d="M413,301L387,450L519,382Z" fill="#7396c7" stroke="#7396c7" stroke-width="1.51"/><path d="M228,81L286,316L387,105Z" fill="#94bedf" stroke="#94bedf" stroke-width="1.51"/><path d="M365,-246L313,-201L411,-81Z" fill="#d1e3f3" stroke="#d1e3f3" stroke-width="1.51"/><path d="M313,-201L280,-11L411,-81Z" fill="#c9ddf0" stroke="#c9ddf0" stroke-width="1.51"/><path d="M280,-11L387,105L411,-81Z" fill="#b5d3e9" stroke="#b5d3e9" stroke-width="1.51"/><path d="M290,423L387,450L413,301Z" fill="#7895c7" stroke="#7895c7" stroke-width="1.51"/><path d="M286,316L290,423L413,301Z" fill="#7d9fce" stroke="#7d9fce" stroke-width="1.51"/><path d="M387,105L286,316L413,301Z" fill="#86b1d8" stroke="#86b1d8" stroke-width="1.51"/><path d="M71,-229L313,-201L365,-246Z" fill="#ddeaf6" stroke="#ddeaf6" stroke-width="1.51"/><path d="M280,-11L228,81L387,105Z" fill="#abcee6" stroke="#abcee6" stroke-width="1.51"/><path d="M228,81L141,244L286,316Z" fill="#90b9dd" stroke="#90b9dd" stroke-width="1.51"/><path d="M108,-35L280,-11L313,-201Z" fill="#cbdef1" stroke="#cbdef1" stroke-width="1.51"/><path d="M71,-229L108,-35L313,-201Z" fill="#d7e6f5" stroke="#d7e6f5" stroke-width="1.51"/><path d="M124,121L141,244L228,81Z" fill="#9dc5e3" stroke="#9dc5e3" stroke-width="1.51"/><path d="M286,316L128,433L290,423Z" fill="#7e98c9" stroke="#7e98c9" stroke-width="1.51"/><path d="M141,244L128,433L286,316Z" fill="#85a5d2" stroke="#85a5d2" stroke-width="1.51"/><path d="M-42,395L-215,465L128,433Z" fill="#8598c5" stroke="#8598c5" stroke-width="1.51"/><path d="M108,-35L228,81L280,-11Z" fill="#bad7ea" stroke="#bad7ea" stroke-width="1.51"/><path d="M108,-35L124,121L228,81Z" fill="#b2d2e8" stroke="#b2d2e8" stroke-width="1.51"/><path d="M108,-35L-91,106L124,121Z" fill="#b5d4e9" stroke="#b5d4e9" stroke-width="1.51"/><path d="M-29,277L-42,395L128,433Z" fill="#88a2cf" stroke="#88a2cf" stroke-width="1.51"/><path d="M-29,277L128,433L141,244Z" fill="#8aaad5" stroke="#8aaad5" stroke-width="1.51"/><path d="M124,121L-29,277L141,244Z" fill="#95bdde" stroke="#95bdde" stroke-width="1.51"/><path d="M71,-229L-104,-39L108,-35Z" fill="#d6e5f4" stroke="#d6e5f4" stroke-width="1.51"/><path d="M-91,106L-29,277L124,121Z" fill="#a1c5e3" stroke="#a1c5e3" stroke-width="1.51"/><path d="M-89,-244L-104,-39L71,-229Z" fill="#e1edf8" stroke="#e1edf8" stroke-width="1.51"/><path d="M-104,-39L-91,106L108,-35Z" fill="#c3ddee" stroke="#c3ddee" stroke-width="1.51"/><path d="M-184,-190L-163,-58L-104,-39Z" fill="#dce9f7" stroke="#dce9f7" stroke-width="1.51"/><path d="M-184,-190L-104,-39L-89,-244Z" fill="#e3eef9" stroke="#e3eef9" stroke-width="1.51"/><path d="M-167,220L-42,395L-29,277Z" fill="#93b1d9" stroke="#93b1d9" stroke-width="1.51"/><path d="M-91,106L-167,220L-29,277Z" fill="#9fc3e2" stroke="#9fc3e2" stroke-width="1.51"/><path d="M-167,220L-215,465L-42,395Z" fill="#90a8d2" stroke="#90a8d2" stroke-width="1.51"/><path d="M-104,-39L-163,-58L-91,106Z" fill="#c9e0ef" stroke="#c9e0ef" stroke-width="1.51"/><path d="M-163,-58L-223,138L-91,106Z" fill="#bddaec" stroke="#bddaec" stroke-width="1.51"/><path d="M-223,138L-167,220L-91,106Z" fill="#a9cce6" stroke="#a9cce6" stroke-width="1.51"/><path d="M-223,138L-215,465L-167,220Z" fill="#9bb8dd" stroke="#9bb8dd" stroke-width="1.51"/><path d="M-184,-190L-223,138L-163,-58Z" fill="#d4e5f3" stroke="#d4e5f3" stroke-width="1.51"/></svg>