<svg xmlns="http://www.w3.org/2000/svg" width="1920" height="240"><path d="M309,465L115,469L404,470Z" fill="#95739f" stroke="#95739f" stroke-width="1.51"/><path d="M445,-232L561,-225L702,-224Z" fill="#ccddec" stroke="#ccddec" stroke-width="1.51"/><path d="M445,-232L702,-224L1467,-214Z" fill="#c0cbe3" stroke="#c0cbe3" stroke-width="1.51"/><path d="M702,-224L1002,-178L1467,-214Z" fill="#bcbcdb" stroke="#bcbcdb" stroke-width="1.51"/><path d="M936,429L785,471L1487,454Z" fill="#7c4e8e" stroke="#7c4e8e" stroke-width="1.51"/><path d="M1467,-214L1644,-156L1766,-154Z" fill="#b893c5" stroke="#b893c5" stroke-width="1.51"/><path d="M1664,425L1487,454L1792,448Z" fill="#78217c" stroke="#78217c" stroke-width="1.51"/><path d="M1467,-214L1766,-154L1983,-204Z" fill="#b98ebf" stroke="#b98ebf" stroke-width="1.51"/><path d="M445,-232L1467,-214L2034,-211Z" fill="#beabd3" stroke="#beabd3" stroke-width="1.51"/><path d="M1467,-214L1983,-204L2034,-211Z" fill="#bb8abb" stroke="#bb8abb" stroke-width="1.51"/><path d="M1982,-7L2029,13L2034,-211Z" fill="#9773a2" stroke="#9773a2" stroke-width="1.51"/><path d="M1983,-204L1982,-7L2034,-211Z" fill="#a47ca9" stroke="#a47ca9" stroke-width="1.51"/><path d="M1487,454L785,471L2058,472Z" fill="#74307f" stroke="#74307f" stroke-width="1.51"/><path d="M1792,448L1487,454L2058,472Z" fill="#721471" stroke="#721471" stroke-width="1.51"/><path d="M1971,111L1888,318L2084,150Z" fill="#7e468e" stroke="#7e468e" stroke-width="1.51"/><path d="M2029,13L1971,111L2084,150Z" fill="#7f5b94" stroke="#7f5b94" stroke-width="1.51"/><path d="M2034,-211L2029,13L2084,150Z" fill="#8b6c9c" stroke="#8b6c9c" stroke-width="1.51"/><path d="M1879,384L2058,472L2100,325Z" fill="#740e71" stroke="#740e71" stroke-width="1.51"/><path d="M1888,318L1879,384L2100,325Z" fill="#7b217e" stroke="#7b217e" stroke-width="1.51"/><path d="M2084,150L1888,318L2100,325Z" fill="#783383" stroke="#783383" stroke-width="1.51"/><path d="M1879,384L1792,448L2058,472Z" fill="#730a6f" stroke="#730a6f" stroke-width="1.51"/><path d="M1982,-7L1971,111L2029,13Z" fill="#88679d" stroke="#88679d" stroke-width="1.51"/><path d="M1806,169L1888,318L1971,111Z" fill="#864895" stroke="#864895" stroke-width="1.51"/><path d="M1776,9L1971,111L1982,-7Z" fill="#906ba5" stroke="#906ba5" stroke-width="1.51"/><path d="M1766,-154L1776,9L1982,-7Z" fill="#a379b0" stroke="#a379b0" stroke-width="1.51"/><path d="M1766,-154L1982,-7L1983,-204Z" fill="#a97eaf" stroke="#a97eaf" stroke-width="1.51"/><path d="M1776,9L1806,169L1971,111Z" fill="#8e62a3" stroke="#8e62a3" stroke-width="1.51"/><path d="M1739,297L1879,384L1888,318Z" fill="#842889" stroke="#842889" stroke-width="1.51"/><path d="M1806,169L1739,297L1888,318Z" fill="#873c94" stroke="#873c94" stroke-width="1.51"/><path d="M1739,297L1792,448L1879,384Z" fill="#831f83" stroke="#831f83" stroke-width="1.51"/><path d="M1687,-15L1587,143L1776,9Z" fill="#9575b2" stroke="#9575b2" stroke-width="1.51"/><path d="M1766,-154L1687,-15L1776,9Z" fill="#a37eb6" stroke="#a37eb6" stroke-width="1.51"/><path d="M1739,297L1664,425L1792,448Z" fill="#832185" stroke="#832185" stroke-width="1.51"/><path d="M1776,9L1587,143L1806,169Z" fill="#8e67aa" stroke="#8e67aa" stroke-width="1.51"/><path d="M1587,143L1739,297L1806,169Z" fill="#8a519f" stroke="#8a519f" stroke-width="1.51"/><path d="M1587,143L1606,291L1739,297Z" fill="#894b9f" stroke="#894b9f" stroke-width="1.51"/><path d="M1644,-156L1687,-15L1766,-154Z" fill="#ad88bc" stroke="#ad88bc" stroke-width="1.51"/><path d="M1196,372L936,429L1487,454Z" fill="#844793" stroke="#844793" stroke-width="1.51"/><path d="M1002,-178L1224,-143L1467,-214Z" fill="#b8add4" stroke="#b8add4" stroke-width="1.51"/><path d="M1606,291L1664,425L1739,297Z" fill="#863391" stroke="#863391" stroke-width="1.51"/><path d="M1644,-156L1464,-54L1687,-15Z" fill="#a889c0" stroke="#a889c0" stroke-width="1.51"/><path d="M1464,-54L1587,143L1687,-15Z" fill="#977fba" stroke="#977fba" stroke-width="1.51"/><path d="M1606,291L1487,454L1664,425Z" fill="#852d8d" stroke="#852d8d" stroke-width="1.51"/><path d="M1307,377L1196,372L1487,454Z" fill="#884094" stroke="#884094" stroke-width="1.51"/><path d="M1469,319L1487,454L1606,291Z" fill="#873a96" stroke="#873a96" stroke-width="1.51"/><path d="M1467,-214L1464,-54L1644,-156Z" fill="#b396c8" stroke="#b396c8" stroke-width="1.51"/><path d="M1224,-143L1381,-166L1467,-214Z" fill="#b8a5cf" stroke="#b8a5cf" stroke-width="1.51"/><path d="M1464,-54L1460,168L1587,143Z" fill="#9178b7" stroke="#9178b7" stroke-width="1.51"/><path d="M1587,143L1460,168L1606,291Z" fill="#8b5aa9" stroke="#8b5aa9" stroke-width="1.51"/><path d="M1460,168L1469,319L1606,291Z" fill="#8a50a3" stroke="#8a50a3" stroke-width="1.51"/><path d="M1284,88L1460,168L1464,-54Z" fill="#9382bc" stroke="#9382bc" stroke-width="1.51"/><path d="M1371,-81L1284,88L1464,-54Z" fill="#9e91c4" stroke="#9e91c4" stroke-width="1.51"/><path d="M1381,-166L1371,-81L1464,-54Z" fill="#ad99c9" stroke="#ad99c9" stroke-width="1.51"/><path d="M1381,-166L1464,-54L1467,-214Z" fill="#b49ccb" stroke="#b49ccb" stroke-width="1.51"/><path d="M1460,168L1345,294L1469,319Z" fill="#8b56a6" stroke="#8b56a6" stroke-width="1.51"/><path d="M1469,319L1307,377L1487,454Z" fill="#873c94" stroke="#873c94" stroke-width="1.51"/><path d="M1345,294L1307,377L1469,319Z" fill="#894b9f" stroke="#894b9f" stroke-width="1.51"/><path d="M1284,88L1345,294L1460,168Z" fill="#8c6bb1" stroke="#8c6bb1" stroke-width="1.51"/><path d="M1284,88L1223,131L1345,294Z" fill="#8d74b5" stroke="#8d74b5" stroke-width="1.51"/><path d="M1224,-143L1284,88L1371,-81Z" fill="#a39ac9" stroke="#a39ac9" stroke-width="1.51"/><path d="M1224,-143L1371,-81L1381,-166Z" fill="#b1a2ce" stroke="#b1a2ce" stroke-width="1.51"/><path d="M1224,-143L1139,-50L1284,88Z" fill="#a19ecb" stroke="#a19ecb" stroke-width="1.51"/><path d="M1223,131L1159,227L1345,294Z" fill="#8c6cb1" stroke="#8c6cb1" stroke-width="1.51"/><path d="M1196,372L1307,377L1345,294Z" fill="#894e9f" stroke="#894e9f" stroke-width="1.51"/><path d="M1159,227L1196,372L1345,294Z" fill="#8b5ba9" stroke="#8b5ba9" stroke-width="1.51"/><path d="M1017,367L936,429L1196,372Z" fill="#8b58a0" stroke="#8b58a0" stroke-width="1.51"/><path d="M1139,-50L1223,131L1284,88Z" fill="#9391c4" stroke="#9391c4" stroke-width="1.51"/><path d="M1139,-50L1015,110L1223,131Z" fill="#9395c6" stroke="#9395c6" stroke-width="1.51"/><path d="M1062,-75L1139,-50L1224,-143Z" fill="#aaaad1" stroke="#aaaad1" stroke-width="1.51"/><path d="M1002,-178L1062,-75L1224,-143Z" fill="#b2b2d6" stroke="#b2b2d6" stroke-width="1.51"/><path d="M1015,110L1159,227L1223,131Z" fill="#8d82bc" stroke="#8d82bc" stroke-width="1.51"/><path d="M1159,227L1017,367L1196,372Z" fill="#8b5fa9" stroke="#8b5fa9" stroke-width="1.51"/><path d="M1062,-75L1015,110L1139,-50Z" fill="#9ba5ce" stroke="#9ba5ce" stroke-width="1.51"/><path d="M1003,233L1017,367L1159,227Z" fill="#8d6db1" stroke="#8d6db1" stroke-width="1.51"/><path d="M1015,110L1003,233L1159,227Z" fill="#8d7fba" stroke="#8d7fba" stroke-width="1.51"/><path d="M-194,-229L-47,-191L445,-232Z" fill="#e7f0f7" stroke="#e7f0f7" stroke-width="1.51"/><path d="M702,-224L917,-140L1002,-178Z" fill="#bbc7e1" stroke="#bbc7e1" stroke-width="1.51"/><path d="M896,-86L909,101L1015,110Z" fill="#94a7cf" stroke="#94a7cf" stroke-width="1.51"/><path d="M1002,-178L917,-140L1062,-75Z" fill="#b1bada" stroke="#b1bada" stroke-width="1.51"/><path d="M917,-140L896,-86L1062,-75Z" fill="#acb8d8" stroke="#acb8d8" stroke-width="1.51"/><path d="M896,-86L1015,110L1062,-75Z" fill="#9dacd2" stroke="#9dacd2" stroke-width="1.51"/><path d="M909,101L1003,233L1015,110Z" fill="#8d8fc2" stroke="#8d8fc2" stroke-width="1.51"/><path d="M1003,233L832,271L1017,367Z" fill="#8d71b4" stroke="#8d71b4" stroke-width="1.51"/><path d="M832,271L936,429L1017,367Z" fill="#8d67aa" stroke="#8d67aa" stroke-width="1.51"/><path d="M909,101L832,271L1003,233Z" fill="#8e87be" stroke="#8e87be" stroke-width="1.51"/><path d="M896,-86L683,14L909,101Z" fill="#9cb3d6" stroke="#9cb3d6" stroke-width="1.51"/><path d="M832,271L785,471L936,429Z" fill="#9065a6" stroke="#9065a6" stroke-width="1.51"/><path d="M712,138L832,271L909,101Z" fill="#9193c5" stroke="#9193c5" stroke-width="1.51"/><path d="M683,14L712,138L909,101Z" fill="#96a9d0" stroke="#96a9d0" stroke-width="1.51"/><path d="M702,-224L896,-86L917,-140Z" fill="#b8c6e0" stroke="#b8c6e0" stroke-width="1.51"/><path d="M756,270L785,471L832,271Z" fill="#9272b1" stroke="#9272b1" stroke-width="1.51"/><path d="M702,-224L683,14L896,-86Z" fill="#b1c5df" stroke="#b1c5df" stroke-width="1.51"/><path d="M630,385L404,470L785,471Z" fill="#8c6b9f" stroke="#8c6b9f" stroke-width="1.51"/><path d="M756,270L630,385L785,471Z" fill="#9470ad" stroke="#9470ad" stroke-width="1.51"/><path d="M712,138L756,270L832,271Z" fill="#938ac0" stroke="#938ac0" stroke-width="1.51"/><path d="M614,8L683,14L702,-224Z" fill="#afc7e0" stroke="#afc7e0" stroke-width="1.51"/><path d="M561,-225L614,8L702,-224Z" fill="#bfd3e6" stroke="#bfd3e6" stroke-width="1.51"/><path d="M712,138L554,263L756,270Z" fill="#9691c4" stroke="#9691c4" stroke-width="1.51"/><path d="M554,263L630,385L756,270Z" fill="#9781bc" stroke="#9781bc" stroke-width="1.51"/><path d="M683,14L614,8L712,138Z" fill="#9bb6d6" stroke="#9bb6d6" stroke-width="1.51"/><path d="M614,8L547,169L712,138Z" fill="#99add2" stroke="#99add2" stroke-width="1.51"/><path d="M547,169L554,263L712,138Z" fill="#999bc9" stroke="#999bc9" stroke-width="1.51"/><path d="M561,-225L478,22L614,8Z" fill="#b4cbe2" stroke="#b4cbe2" stroke-width="1.51"/><path d="M478,22L547,169L614,8Z" fill="#a1b8d8" stroke="#a1b8d8" stroke-width="1.51"/><path d="M554,263L404,470L630,385Z" fill="#9d79b2" stroke="#9d79b2" stroke-width="1.51"/><path d="M445,-232L478,22L561,-225Z" fill="#c5d8e9" stroke="#c5d8e9" stroke-width="1.51"/><path d="M-47,-191L102,-137L445,-232Z" fill="#dde9f2" stroke="#dde9f2" stroke-width="1.51"/><path d="M445,-232L310,-136L478,22Z" fill="#c5d7e9" stroke="#c5d7e9" stroke-width="1.51"/><path d="M478,22L391,146L547,169Z" fill="#a1b1d5" stroke="#a1b1d5" stroke-width="1.51"/><path d="M547,169L467,243L554,263Z" fill="#9e96c7" stroke="#9e96c7" stroke-width="1.51"/><path d="M467,243L404,470L554,263Z" fill="#a084bc" stroke="#a084bc" stroke-width="1.51"/><path d="M310,-136L305,-67L478,22Z" fill="#bed2e6" stroke="#bed2e6" stroke-width="1.51"/><path d="M391,146L467,243L547,169Z" fill="#a1a1cc" stroke="#a1a1cc" stroke-width="1.51"/><path d="M102,-137L310,-136L445,-232Z" fill="#d5e3ef" stroke="#d5e3ef" stroke-width="1.51"/><path d="M318,314L404,470L467,243Z" fill="#a483bb" stroke="#a483bb" stroke-width="1.51"/><path d="M308,79L391,146L478,22Z" fill="#a7bad9" stroke="#a7bad9" stroke-width="1.51"/><path d="M305,-67L308,79L478,22Z" fill="#b1c9e1" stroke="#b1c9e1" stroke-width="1.51"/><path d="M391,146L318,314L467,243Z" fill="#a599c9" stroke="#a599c9" stroke-width="1.51"/><path d="M318,314L309,465L404,470Z" fill="#a178ac" stroke="#a178ac" stroke-width="1.51"/><path d="M308,79L318,314L391,146Z" fill="#a7a7d0" stroke="#a7a7d0" stroke-width="1.51"/><path d="M130,-6L175,79L305,-67Z" fill="#bcd1e5" stroke="#bcd1e5" stroke-width="1.51"/><path d="M305,-67L175,79L308,79Z" fill="#b4cae2" stroke="#b4cae2" stroke-width="1.51"/><path d="M175,79L145,266L308,79Z" fill="#afb5d7" stroke="#afb5d7" stroke-width="1.51"/><path d="M308,79L145,266L318,314Z" fill="#aca2cd" stroke="#aca2cd" stroke-width="1.51"/><path d="M115,469L309,465L318,314Z" fill="#a77cae" stroke="#a77cae" stroke-width="1.51"/><path d="M145,266L115,469L318,314Z" fill="#ae8abd" stroke="#ae8abd" stroke-width="1.51"/><path d="M102,-137L305,-67L310,-136Z" fill="#cedeed" stroke="#cedeed" stroke-width="1.51"/><path d="M102,-137L130,-6L305,-67Z" fill="#cadbea" stroke="#cadbea" stroke-width="1.51"/><path d="M-58,380L-159,371L115,469Z" fill="#b687b7" stroke="#b687b7" stroke-width="1.51"/><path d="M33,252L-58,380L115,469Z" fill="#b68cbe" stroke="#b68cbe" stroke-width="1.51"/><path d="M33,252L115,469L145,266Z" fill="#b491c3" stroke="#b491c3" stroke-width="1.51"/><path d="M-63,65L33,252L175,79Z" fill="#b7bedb" stroke="#b7bedb" stroke-width="1.51"/><path d="M-6,7L-63,65L175,79Z" fill="#becfe5" stroke="#becfe5" stroke-width="1.51"/><path d="M130,-6L-6,7L175,79Z" fill="#bdd2e6" stroke="#bdd2e6" stroke-width="1.51"/><path d="M33,252L145,266L175,79Z" fill="#b3abd2" stroke="#b3abd2" stroke-width="1.51"/><path d="M102,-137L-6,7L130,-6Z" fill="#cbdceb" stroke="#cbdceb" stroke-width="1.51"/><path d="M-47,-191L-6,7L102,-137Z" fill="#d8e5f0" stroke="#d8e5f0" stroke-width="1.51"/><path d="M-47,-191L-136,-9L-6,7Z" fill="#d4e2ef" stroke="#d4e2ef" stroke-width="1.51"/><path d="M-63,65L-161,121L33,252Z" fill="#bbbddc" stroke="#bbbddc" stroke-width="1.51"/><path d="M-161,121L-146,325L33,252Z" fill="#bdaad3" stroke="#bdaad3" stroke-width="1.51"/><path d="M-146,325L-58,380L33,252Z" fill="#ba97c8" stroke="#ba97c8" stroke-width="1.51"/><path d="M-136,-9L-63,65L-6,7Z" fill="#c5d8ea" stroke="#c5d8ea" stroke-width="1.51"/><path d="M-194,-229L-136,-9L-47,-191Z" fill="#e4eef5" stroke="#e4eef5" stroke-width="1.51"/><path d="M-146,325L-159,371L-58,380Z" fill="#bc91c1" stroke="#bc91c1" stroke-width="1.51"/><path d="M-136,-9L-161,121L-63,65Z" fill="#c3d2e6" stroke="#c3d2e6" stroke-width="1.51"/><path d="M-194,-229L-161,121L-136,-9Z" fill="#d3e2ee" stroke="#d3e2ee" stroke-width="1.51"/><path d="M-161,121L-159,371L-146,325Z" fill="#bfa3cf" stroke="#bfa3cf" stroke-width="1.51"/><path d="M-161,121L-194,-229L-159,371Z" fill="#c2cde4" stroke="#c2cde4" stroke-width="1.51"/></svg>